<svg width="37" height="37" viewBox="0 0 37 37" fill="none" xmlns="http://www.w3.org/2000/svg">
<path opacity="0.1" fill-rule="evenodd" clip-rule="evenodd" d="M18.5 36C28.165 36 36 28.165 36 18.5C36 8.83502 28.165 1 18.5 1C8.83502 1 1 8.83502 1 18.5C1 28.165 8.83502 36 18.5 36Z" stroke="white" stroke-width="1.5"/>
<path fill-rule="evenodd" clip-rule="evenodd" d="M17.493 9.01247C17.3463 9.03151 17.2835 9.04814 17.0129 9.13962C16.6214 9.27201 16.2839 9.48454 15.9819 9.78898C15.6117 10.1621 15.3774 10.5897 15.262 11.1024C15.1906 11.4196 15.1905 11.9296 15.2616 12.2444C15.3527 12.6473 15.4681 12.8941 15.7951 13.3852C15.9979 13.6898 16.4297 14.3264 16.5329 14.473C16.5643 14.5176 16.6873 14.7032 16.8063 14.8855C17.1106 15.3518 17.3204 15.5372 17.6677 15.6464C17.884 15.7146 18.2474 15.7097 18.4554 15.6359C18.766 15.5257 19.0165 15.3205 19.1734 15.0479C19.3508 14.7395 20.3299 12.7029 20.389 12.5193C20.4856 12.2192 20.5181 12.0024 20.5173 11.6645C20.516 11.1935 20.4332 10.8502 20.2216 10.4392C19.8528 9.72284 19.193 9.2213 18.3971 9.05222C18.1771 9.00547 17.7064 8.98478 17.493 9.01247ZM23.8015 12.2363C23.2485 12.338 22.8342 12.5021 22.479 12.7601C22.1397 13.0065 22.0123 13.1512 21.128 14.2943C20.0389 15.7021 20.0943 15.6267 20.0338 15.7853C19.939 16.0341 19.9178 16.1386 19.9178 16.3567C19.9178 16.9371 20.2259 17.4442 20.735 17.7017C20.92 17.7954 21.1296 17.8503 21.4122 17.8793C21.5324 17.8916 21.6371 17.9057 21.6449 17.9105C21.6527 17.9154 21.732 17.9283 21.821 17.9391C21.9101 17.95 22.0615 17.9727 22.1576 17.9896C22.2536 18.0065 22.4478 18.0358 22.5891 18.0547C22.7304 18.0736 22.9486 18.1068 23.0739 18.1286C23.7215 18.2411 24.3383 18.2729 24.7056 18.2127C25.0799 18.1513 25.5126 17.9751 25.8655 17.7402C26.1165 17.5732 26.5013 17.1943 26.6545 16.9634C27.08 16.3218 27.2669 15.5393 27.1618 14.8388C27.0591 14.1543 26.7993 13.6182 26.3363 13.1351C25.9336 12.715 25.491 12.4604 24.873 12.2931C24.6967 12.2453 24.6294 12.2387 24.2638 12.2331C24.0378 12.2296 23.8297 12.2311 23.8015 12.2363ZM12.9451 14.1715C12.4732 14.2254 12.0409 14.4324 11.689 14.773C11.473 14.982 11.3777 15.1059 11.2575 15.3337C11.0721 15.685 10.9993 15.9909 11 16.4155C11.0007 16.8471 11.1005 17.2047 11.3205 17.5644C11.4479 17.7728 11.7853 18.1204 12.0009 18.2655C12.3878 18.5258 12.9381 18.6683 13.3832 18.6234C13.5992 18.6016 13.764 18.5612 14.4415 18.3635C15.9222 17.9315 15.8734 17.9481 16.034 17.8215C16.1512 17.7291 16.2029 17.6708 16.3034 17.5178C16.5162 17.1936 16.5222 16.7435 16.3186 16.3874C16.2726 16.307 16.0324 16.0535 15.4994 15.5229C15.0846 15.1099 14.6846 14.722 14.6105 14.6607C14.1541 14.2836 13.5409 14.1035 12.9451 14.1715ZM20.2473 18.9595C19.9777 18.9983 19.7174 19.1401 19.5072 19.3626C19.252 19.6328 19.1361 19.924 19.1378 20.2902C19.1383 20.3937 19.1478 20.5204 19.1588 20.5717C19.1801 20.67 19.1959 20.8012 19.2471 21.3071C19.2644 21.478 19.2973 21.7669 19.3201 21.9492C19.3429 22.1315 19.3763 22.4065 19.3943 22.5603C19.4603 23.1237 19.5353 23.3993 19.7156 23.741C19.8669 24.0279 19.9807 24.1816 20.2139 24.4143C20.6078 24.8071 21.0505 25.0427 21.6233 25.1641C21.8614 25.2145 22.3661 25.214 22.6097 25.163C23.5959 24.9565 24.3667 24.277 24.6809 23.3371C24.9158 22.6346 24.8461 21.8405 24.4922 21.1859C24.2891 20.8104 23.9547 20.441 23.6124 20.214C23.3936 20.0689 23.3073 20.0258 22.9076 19.8616C22.7268 19.7873 22.1924 19.5625 21.72 19.3619C20.7029 18.9301 20.6162 18.9064 20.2473 18.9595ZM16.2616 18.9785C16.2116 18.9884 16.1238 19.012 16.0664 19.0311C15.9664 19.0643 13.7521 20.2168 13.4551 20.3903C12.7026 20.8298 12.1803 21.5639 12.0026 22.4318C11.939 22.7425 11.9396 23.2846 12.0039 23.5839C12.1307 24.1742 12.3733 24.6416 12.7667 25.0533C13.2674 25.5774 13.7071 25.8129 14.4893 25.9761C14.6738 26.0146 15.2419 26.0049 15.4755 25.9592C16.051 25.8468 16.5653 25.5804 16.9772 25.1814C17.317 24.8523 17.4956 24.5962 17.6681 24.1905C17.8532 23.7552 17.9146 23.3816 17.9343 22.5707C17.9412 22.2858 17.9556 21.8431 17.9663 21.5867C17.977 21.3304 17.9863 20.9109 17.9871 20.6546C17.9886 20.1213 17.9757 20.0441 17.8378 19.7638C17.7686 19.6231 17.7139 19.55 17.5656 19.3996C17.409 19.2408 17.3494 19.1962 17.1848 19.1143C17.0774 19.0609 16.9248 19.0036 16.8457 18.9869C16.6892 18.954 16.406 18.9499 16.2616 18.9785Z" fill="white"/>
</svg>
