<svg width="37" height="37" viewBox="0 0 37 37" fill="none" xmlns="http://www.w3.org/2000/svg">
<path opacity="0.1" fill-rule="evenodd" clip-rule="evenodd" d="M18.5 36C28.165 36 36 28.165 36 18.5C36 8.83502 28.165 1 18.5 1C8.83502 1 1 8.83502 1 18.5C1 28.165 8.83502 36 18.5 36Z" stroke="white" stroke-width="1.5"/>
<path d="M19 11.6265C21.3855 11.6265 21.7108 11.6265 22.6867 11.6265C23.5542 11.6265 23.988 11.8434 24.3133 11.9518C24.747 12.1687 25.0723 12.2771 25.3976 12.6024C25.7229 12.9277 25.9398 13.253 26.0482 13.6867C26.1566 14.012 26.2651 14.4458 26.3735 15.3133C26.3735 16.2892 26.3735 16.506 26.3735 19C26.3735 21.494 26.3735 21.7108 26.3735 22.6867C26.3735 23.5542 26.1566 23.988 26.0482 24.3133C25.8313 24.747 25.7229 25.0723 25.3976 25.3976C25.0723 25.7229 24.747 25.9398 24.3133 26.0482C23.988 26.1566 23.5542 26.2651 22.6867 26.3735C21.7108 26.3735 21.494 26.3735 19 26.3735C16.506 26.3735 16.2892 26.3735 15.3133 26.3735C14.4458 26.3735 14.012 26.1566 13.6867 26.0482C13.253 25.8313 12.9277 25.7229 12.6024 25.3976C12.2771 25.0723 12.0602 24.747 11.9518 24.3133C11.8434 23.988 11.7349 23.5542 11.6265 22.6867C11.6265 21.7108 11.6265 21.494 11.6265 19C11.6265 16.506 11.6265 16.2892 11.6265 15.3133C11.6265 14.4458 11.8434 14.012 11.9518 13.6867C12.1687 13.253 12.2771 12.9277 12.6024 12.6024C12.9277 12.2771 13.253 12.0602 13.6867 11.9518C14.012 11.8434 14.4458 11.7349 15.3133 11.6265C16.2892 11.6265 16.6145 11.6265 19 11.6265ZM19 10C16.506 10 16.2892 10 15.3133 10C14.3374 10 13.6867 10.2169 13.1446 10.4337C12.6024 10.6506 12.0602 10.9759 11.5181 11.5181C10.9759 12.0602 10.759 12.494 10.4337 13.1446C10.2169 13.6867 10.1084 14.3374 10 15.3133C10 16.2892 10 16.6145 10 19C10 21.494 10 21.7108 10 22.6867C10 23.6627 10.2169 24.3133 10.4337 24.8554C10.6506 25.3976 10.9759 25.9398 11.5181 26.4819C12.0602 27.0241 12.494 27.241 13.1446 27.5663C13.6867 27.7831 14.3374 27.8916 15.3133 28C16.2892 28 16.6145 28 19 28C21.3855 28 21.7108 28 22.6867 28C23.6627 28 24.3133 27.7831 24.8554 27.5663C25.3976 27.3494 25.9398 27.0241 26.4819 26.4819C27.0241 25.9398 27.241 25.506 27.5663 24.8554C27.7831 24.3133 27.8916 23.6627 28 22.6867C28 21.7108 28 21.3855 28 19C28 16.6145 28 16.2892 28 15.3133C28 14.3374 27.7831 13.6867 27.5663 13.1446C27.3494 12.6024 27.0241 12.0602 26.4819 11.5181C25.9398 10.9759 25.506 10.759 24.8554 10.4337C24.3133 10.2169 23.6627 10.1084 22.6867 10C21.7108 10 21.494 10 19 10Z" fill="white"/>
<path d="M19 14.3373C16.3976 14.3373 14.3373 16.3976 14.3373 19C14.3373 21.6024 16.3976 23.6627 19 23.6627C21.6024 23.6627 23.6627 21.6024 23.6627 19C23.6627 16.3976 21.6024 14.3373 19 14.3373ZM19 22.0361C17.3735 22.0361 15.9639 20.7349 15.9639 19C15.9639 17.3735 17.2651 15.9639 19 15.9639C20.6265 15.9639 22.0361 17.2651 22.0361 19C22.0361 20.6265 20.6265 22.0361 19 22.0361Z" fill="white"/>
<path d="M23.7711 15.3133C24.3699 15.3133 24.8554 14.8278 24.8554 14.2289C24.8554 13.6301 24.3699 13.1446 23.7711 13.1446C23.1722 13.1446 22.6867 13.6301 22.6867 14.2289C22.6867 14.8278 23.1722 15.3133 23.7711 15.3133Z" fill="white"/>
</svg>
