<svg width="37" height="37" viewBox="0 0 37 37" fill="none" xmlns="http://www.w3.org/2000/svg">
<path opacity="0.1" fill-rule="evenodd" clip-rule="evenodd" d="M18.5 36C28.165 36 36 28.165 36 18.5C36 8.83502 28.165 1 18.5 1C8.83502 1 1 8.83502 1 18.5C1 28.165 8.83502 36 18.5 36Z" stroke="white" stroke-width="1.5"/>
<path d="M25.9997 14.4043C24.8249 14.4043 23.6983 13.9402 22.8676 13.1143C22.037 12.2883 21.5703 11.1681 21.5703 10H18.4057V22.3214C18.4051 22.8832 18.2268 23.4305 17.8958 23.8858C17.5649 24.3412 17.0983 24.6814 16.562 24.8583C16.0258 25.0352 15.4472 25.0397 14.9081 24.8714C14.3691 24.703 13.8971 24.3703 13.5589 23.9202C13.2207 23.4702 13.0336 22.9258 13.024 22.3641C13.0144 21.8024 13.1828 21.252 13.5054 20.7908C13.828 20.3296 14.2884 19.9811 14.8213 19.7946C15.3543 19.6081 15.9327 19.5932 16.4747 19.7518V16.6931C15.3229 16.5386 14.1511 16.7373 13.1159 17.2625C12.0806 17.7876 11.2311 18.6143 10.6808 19.6322C10.1305 20.6501 9.90561 21.8106 10.0361 22.9589C10.1667 24.1072 10.6464 25.1886 11.4114 26.0586C12.1763 26.9287 13.1899 27.546 14.317 27.8281C15.444 28.1103 16.6308 28.0438 17.7189 27.6377C18.807 27.2315 19.7445 26.505 20.4064 25.555C21.0682 24.6051 21.4229 23.477 21.4229 22.3214L21.5153 16.0933C22.8155 17.0424 24.387 17.5531 26 17.5507L25.9997 14.4043Z" fill="white"/>
</svg>
